<?xml version="1.0" encoding="UTF-8"?>
<svg xmlns="http://www.w3.org/2000/svg" version="1.1" xmlns:inkscape="http://www.inkscape.org/namespaces/inkscape" xmlns:sodipodi="http://sodipodi.sourceforge.net/DTD/sodipodi-0.dtd" xmlns:svg="http://www.w3.org/2000/svg" xmlns:xlink="http://www.w3.org/1999/xlink" viewBox="0 0 517.2 433.6">
  <defs>
    <style>
      .cls-1 {
        isolation: isolate;
      }

      .cls-2 {
        filter: url(#outer-glow-1);
      }

      .cls-3 {
        mix-blend-mode: screen;
        opacity: .8;
      }

      .cls-4 {
        fill: #d6c1d2;
      }
    </style>
    <filter id="outer-glow-1" x="-10.1" y="-9.9" width="537" height="453" filterUnits="userSpaceOnUse">
      <feOffset dx="0" dy="0"/>
      <feGaussianBlur result="blur" stdDeviation="15"/>
      <feFlood flood-color="#f20ac6" flood-opacity=".8"/>
      <feComposite in2="blur" operator="in"/>
      <feComposite in="SourceGraphic"/>
    </filter>
  </defs>
  <!-- Generator: Adobe Illustrator 28.7.1, SVG Export Plug-In . SVG Version: 1.2.0 Build 142)  -->
  <g class="cls-1">
    <g id="svg1" inkscape:version="1.3.2 (091e20e, 2023-11-25, custom)" sodipodi:docname="drawing.svg">
      <image class="cls-3" width="650" height="545" transform="scale(.8)" xlink:href="drawing2-1.png"/>
      <g class="cls-2">
        <image class="cls-3" width="559" height="455" transform="translate(36.2 35.8) scale(.8)" xlink:href="drawing2-2.png"/>
        <path class="cls-4" d="M131.2,394.9h-6.7c0,0-1.8-.3-1.8-.3l-1.8-.2-6.3-1.2-6.3-1.2-5.4-2.1-5.4-2.1-4.9-2.6-4.9-2.6-4.1-2.8-4.1-2.8-6.2-5.6-6.2-5.6-4.5-5.4-4.5-5.4-2.2-3.4-2.2-3.4-2.3-4.2-2.3-4.2-2.4-6.6-2.4-6.6-1.5-5.8-1.5-5.8-.6-4.8-.6-4.8-.4-5.7-.4-5.7.7-8.1.7-8.1,1.7-8.7,1.7-8.7,1.9-5.7,1.9-5.7,3.8-7.5,3.8-7.5,3.3-4.1,3.3-4.1v-.6s0-.6,0-.6l2.5-2.6,2.5-2.6h1.5s1.5,0,1.5,0l1.1,1.6,1.1,1.6-1.7,3.2-1.7,3.2-3.7,4.6-3.7,4.6-4.2,8.4-4.2,8.4-2.1,7.2-2.1,7.2-.8,5.7-.8,5.7-.6,6.7-.6,6.7.6,6.7.6,6.7.9,5.4.9,5.4,2.6,8.4,2.6,8.4,2.9,5.5,2.9,5.5,3.6,4.9,3.6,4.9,6.6,6.6,6.6,6.6,6.5,4.3,6.5,4.3,4.1,2.1,4.1,2.1,4.7,1.7,4.7,1.7,5.2,1,5.2,1h10.4s10.4,0,10.4,0l5-1.1,5-1.1,6.8-2.3,6.8-2.3,4.6-2.3,4.6-2.3,6.2-4.2,6.2-4.2,5.3-4.8,5.3-4.8,5-5.6,5-5.6,2.4-4,2.4-4,3-3.7,3-3.7v-1.4l2.1-3.5,2.1-3.5,2.6-5.7,2.6-5.7,3.4-7.5,3.4-7.5,1.3-1.3,1.3-1.3h1.5l.6,1.2.6,1.2v4.2l-2.7,7.1-2.7,7.1-2.8,5.7-2.8,5.7-3.9,6.9-3.9,6.9-1.9,2.1-1.9,2.1-1.5,2.4-1.5,2.4-2.3,3-2.3,3-5.1,5.4-5.1,5.4-4.5,4.1-4.5,4.1-5.2,3.5-5.2,3.5-5.6,3-5.6,3-4.5,1.8-4.5,1.8-6.9,1.8-6.9,1.8-4.7.6-4.7.6h-6.7ZM131.3,393.7h4.5c0,0,5.4-.6,5.4-.6l5.4-.6,7.4-2.1,7.4-2.1,5.1-2.1,5.1-2.1,4.8-2.7,4.8-2.7,5.4-3.6,5.4-3.6,8.4-8.4,8.4-8.4,3.6-5.1,3.6-5.1,2.5-3.3,2.5-3.3,3.9-6.6,3.9-6.6.6-1.5.6-1.5,2.1-4.2,2.1-4.2,2.7-7.1,2.7-7.1-.4-1.8-.4-1.8-1.3,1.2-1.3,1.2-1.4,3.4-1.4,3.4-1,1.8-1,1.8-.7,2.2-.7,2.2-3.6,7-3.6,7-1.8,3.5-1.8,3.5-2.5,3.3-2.5,3.3-2.8,4.2-2.8,4.2-3.7,4.1-3.7,4.1-6.6,6-6.6,6-5.7,3.7-5.7,3.7-4.9,2.5-4.9,2.5-4,1.5-4,1.5-6.9,1.8-6.9,1.8-9.5.3-9.5.3-6.7-1-6.7-1-5.2-1.8-5.2-1.8-4.2-2-4.2-2-6.4-4.2-6.4-4.2-4.7-4.3-4.7-4.3-3.6-4.2-3.6-4.2-2.7-3.9-2.7-3.9-2.5-4.6-2.5-4.6-2.9-8.8-2.9-8.8-.9-4.9-.9-4.9-.7-8-.7-8,.8-7.9.8-7.9.9-5.1.9-5.1,2.4-7.8,2.4-7.8,3.6-6.9,3.6-6.9,2.1-3,2.1-3,1.8-2.1,1.8-2.1,1.5-2.8,1.5-2.8-1-1-1-1-1.9,1.4-1.9,1.4-1.7,2.7-1.7,2.7-2.1,2.5-2.1,2.5-3.9,7.3-3.9,7.3-1.2,3.3-1.2,3.3-1.5,5.4-1.5,5.4-1.4,6.9-1.4,6.9v14.6s0,14.6,0,14.6l1.4,6.3,1.4,6.3,2.7,8,2.7,8,1.5,3.1,1.5,3.1,3,5.1,3,5.1,3.4,4.2,3.4,4.2,6.5,6.3,6.5,6.3,5.3,3.6,5.3,3.6,3.9,2.1,3.9,2.1,5.7,2.2,5.7,2.2,3.9.9,3.9.9,5.4.8,5.4.8h4.5ZM385.1,394.6l-7,.3-5.7-.6-5.7-.6-5.1-1.2-5.1-1.2-5.7-2.1-5.7-2.1-6.9-3.5-6.9-3.5-6.9-5.1-6.9-5.1-6.8-6.7-6.8-6.7-5.9-7.3-5.9-7.3-3.3-5.7-3.3-5.7-3.8-7.6-3.8-7.6-1.8-4.6-1.8-4.6-.9-3.6-.9-3.6v-8l1.3.2,1.3.2,1.3,1.9,1.3,1.9,2.2,6.3,2.2,6.3,2.9,6.1,2.9,6.1,3.4,6.3,3.4,6.3,3.4,5.1,3.4,5.1,6.1,6.9,6.1,6.9,4.1,4,4.1,4,4.8,3.6,4.8,3.6,3.3,2.1,3.3,2.1,4.1,2.2,4.1,2.2,5.1,2,5.1,2,4.8,1.2,4.8,1.2,6.6.7,6.6.7,6.7-.4,6.7-.4,3.4-.6,3.4-.6,6-1.8,6-1.8,6.4-3.2,6.4-3.2,2.2-1.4,2.2-1.4,4.5-3.6,4.5-3.6,4.5-4.7,4.5-4.7,4-5.7,4-5.7,3.8-7.8,3.8-7.8,2.1-7.5,2.1-7.5.9-5.7.9-5.7v-8.6s0-8.6,0-8.6l-.9-6.3-.9-6.3-1.4-5.5-1.4-5.5-1.9-5.7-1.9-5.7-3.5-6.9-3.5-6.9-4.3-6.4-4.3-6.4-.9-1.4-.9-1.4,1.4-1.5,1.4-1.5h2.5l1.9,1.9,1.9,1.9,3.6,5.7,3.6,5.7,3.9,7.8,3.9,7.8,2.7,8.4,2.7,8.4,1.1,6.6,1.1,6.6.6,7.4.6,7.4-.6,7.7-.6,7.7-.9,4.8-.9,4.8-1.5,5.1-1.5,5.1-2.1,5.1-2.1,5.1-3.2,5.7-3.2,5.7-5.2,6.8-5.2,6.8-5,4.9-5,4.9-5.4,3.6-5.4,3.6-7.2,3.5-7.2,3.5-5.7,1.8-5.7,1.8-4.9.9-4.9.9-7,.3ZM381.7,393.1h9c0,0,5.3-.9,5.3-.9l5.3-.9,6.2-2.1,6.2-2.1,6.1-3,6.1-3,5.4-3.5,5.4-3.5,4.9-4.6,4.9-4.6,4.2-5.3,4.2-5.3,2.7-4.1,2.7-4.1,3.5-7.2,3.5-7.2,2.1-6.9,2.1-6.9,1-5,1-5,.3-10.1.3-10.1-1-7.8-1-7.8-1.1-4.5-1.1-4.5-2.4-7.1-2.4-7.1-3.3-6.7-3.3-6.7-4.6-7.1-4.6-7.1-1.2-.6-1.2-.6-1.1,1.2-1.1,1.2,2.4,3.1,2.4,3.1,4.1,6.9,4.1,6.9,2.6,5.9,2.6,5.9,2.3,7.5,2.3,7.5,1,5.4,1,5.4.4,7.8.4,7.8-.5,7.4-.5,7.4-2.1,8.1-2.1,8.1-1.5,3.9-1.5,3.9-2.9,5.7-2.9,5.7-4,5.7-4,5.7-5.1,5.3-5.1,5.3-4.6,3.7-4.6,3.7-6.7,3.6-6.7,3.6-7.2,2.4-7.2,2.4-5.9.9-5.9.9h-7.1s-7.1,0-7.1,0l-6.3-.9-6.3-.9-7.2-2.4-7.2-2.4-6.3-3.3-6.3-3.3-4.6-3.3-4.6-3.3-4-3.3-4-3.3-6.2-6.7-6.2-6.7-3-3.6-3-3.6-3.1-4.8-3.1-4.8-3.6-6.6-3.6-6.6-2.6-5.7-2.6-5.7-2.3-6.4-2.3-6.4-.8-1.2-.8-1.2h-1l.4,4,.4,4,1.8,5.4,1.8,5.4,2.6,5.7,2.6,5.7,5.1,9,5.1,9,5.5,6.8,5.5,6.8,6.9,6.9,6.9,6.9,6.6,4.9,6.6,4.9,5.4,2.8,5.4,2.8,5.7,2.4,5.7,2.4,4.8,1.4,4.8,1.4,4.8.7,4.8.7h9ZM372.4,374.6h-2.7s-.7-.3-.7-.3l-.7-.3v-.9l2.5.3,2.5.3,5.7-1,5.7-1,5.9-1.8,5.9-1.8,4.9-2.3,4.9-2.3,4.1-2.7,4.1-2.7,4-3.8,4-3.8,3.5-4.8,3.5-4.8,2.2-4,2.2-4,2.1-6.2,2.1-6.2.6-4.7.6-4.7v-3.7s0-3.7,0-3.7l-.9-5.7-.9-5.7-1.6-4.7-1.6-4.7-2.3-4.9-2.3-4.9-3.3-5-3.3-5-4.4-4.6-4.4-4.6-3.3-2.6-3.3-2.6-2.9-1.7-2.9-1.7-2.6-1-2.6-1-1.6.8-1.6.8,8.7,5.8,8.7,5.8,4.3,4.3,4.3,4.3,3.5,5.2,3.5,5.2,2.3,4.9,2.3,4.9,1.5,5.3,1.5,5.3.6,6.2.6,6.2-.6,5-.6,5-2,6.6-2,6.6-3.2,5.1-3.2,5.1-2.8,3.5-2.8,3.5-4.4,3.6-4.4,3.6-3.2,2.1-3.2,2.1-6.3,2.7-6.3,2.7-3.6.9-3.6.9-5.7,1.3-5.7,1.3-1.3.3-1.3.3v-1l7-1.7,7-1.7,4.2-1.2,4.2-1.2,6.7-3.2,6.7-3.2,4.7-3.6,4.7-3.6,3-3,3-3,4.2-6.5,4.2-6.5,1.8-5.7,1.8-5.7.6-3.2.6-3.2v-6.3s0-6.3,0-6.3l-.9-4.2-.9-4.2-1.3-3.9-1.3-3.9-2.6-5.3-2.6-5.3-2.8-4-2.8-4-2.1-2.3-2.1-2.3-3.3-2.7-3.3-2.7-3.6-2.4-3.6-2.4-4.3-2.7-4.3-2.7v-1.7l1.3-.9,1.3-.9h1.8s1.8,0,1.8,0l3.7,1.8,3.7,1.8,3.7,2.5,3.7,2.5,4.8,4.8,4.8,4.8,3.8,5.3,3.8,5.3,2.1,4.3,2.1,4.3,2.1,6.1,2.1,6.1.9,6,.9,6-.3,7.2-.3,7.2-1.5,5.7-1.5,5.7-2.9,6-2.9,6-3.8,5.1-3.8,5.1-3.4,3.3-3.4,3.3-5.2,3.4-5.2,3.4-6.1,2.6-6.1,2.6-4.5,1.3-4.5,1.3-5,.9-5,.9h-2.7ZM137.3,373.3l-4.5.2-4.5-1.2-4.5-1.2-3.9-1.3-3.9-1.3-2.2-1.1-2.2-1.1-5.2-3.4-5.2-3.4-4.6-4.4-4.6-4.4-2.9-3.9-2.9-3.9-2.1-4.2-2.1-4.2-1.9-5.7-1.9-5.7-.6-3.9-.6-3.9v-7.3s0-7.3,0-7.3l.6-4.7.6-4.7,1.8-5.7,1.8-5.7,2.9-5.7,2.9-5.7,4.5-6,4.5-6,3.8-3.5,3.8-3.5,4.1-2.9,4.1-2.9,2.7-1,2.7-1,1.5,1.4,1.5,1.4v2l-1.1,1-1.1,1-4.5,3.1-4.5,3.1-5.1,4.7-5.1,4.7-3.9,5.9-3.9,5.9-2.3,5.3-2.3,5.3-1.3,4.7-1.3,4.7v11s0,11,0,11l1.7,5.6,1.7,5.6,1.7,3.7,1.7,3.7,2,2.9,2,2.9,4.5,4.7,4.5,4.7,3.8,2.7,3.8,2.7,5.5,2.6,5.5,2.6,3,.7,3,.7,4.9,1.9,4.9,1.9-.2.2-.2.2-2.9-.8-2.9-.8-5.7-1.5-5.7-1.5-5.2-2.5-5.2-2.5-3.7-2.7-3.7-2.7-4.5-4.7-4.5-4.7-2.5-3.9-2.5-3.9-1.8-4.7-1.8-4.7-.9-3.4-.9-3.4-.6-6.4-.6-6.4.7-5.8.7-5.8.8-3.7.8-3.7,1.9-4.7,1.9-4.7,3-4.9,3-4.9,2.3-2.8,2.3-2.8,3.5-3.4,3.5-3.4,3.4-2.6,3.4-2.6,3.4-2.3,3.4-2.3-1.1-1.2-1.1-1.2-1.5.4-1.5.4-3.9,2.6-3.9,2.6-3.9,3.2-3.9,3.2-4.9,6.4-4.9,6.4-3,5.8-3,5.8-1.8,5.7-1.8,5.7-.6,4.7-.6,4.7v12.9l.9,5,.9,5,2.1,5.9,2.1,5.9,1.8,3.3,1.8,3.3,3,4,3,4,4,3.7,4,3.7,4.9,3.2,4.9,3.2,3.5,1.7,3.5,1.7,7.4,2.2,7.4,2.2h3.1c0,0,3.1.1,3.1.1l2.4-.4,2.4-.4-1.2.7-1.2.7-4.5.2ZM139.4,368.7h-.3l-.4-.7-.4-.7.7.4.7.4v.5h-.3ZM364.1,361.5h-2.8c0,0-3.6-.6-3.6-.6l-3.6-.5-5.4-1.5-5.4-1.5-5.7-3-5.7-3-4.8-3.2-4.8-3.2-5.8-5.1-5.8-5.1-7.1-8.5-7.1-8.5-4.5-7.2-4.5-7.2-7.6-15.1-7.6-15.1-4.1-6.1-4.1-6.1v-2.9l.7-.7.7-.7h3.7l.9.7.9.7,4.6,7.3,4.6,7.3,5.7,12.1,5.7,12.1,3,5.1,3,5.1,4.7,7,4.7,7,6.9,7.2,6.9,7.2,6.2,4.6,6.2,4.6,6.7,3.4,6.7,3.4,5.9,1.5,5.9,1.5h4.5s4.5,0,4.5,0l5.4-1,5.4-1,3.7-1.6,3.7-1.6,3.5-2.4,3.5-2.4,3.5-3.5,3.5-3.5,2.6-5.4,2.6-5.4,1-4.1,1-4.1v-5.4s0-5.4,0-5.4l-.6-3.9-.6-3.9-1.2-3.9-1.2-3.9-2.4-4.2-2.4-4.2-3.1-4.2-3.1-4.2-4.6-4.4-4.6-4.4-4.9-3.1-4.9-3.1-5.7-3-5.7-3-4.2-1.6-4.2-1.6-9-3.1-9-3.1-9.2-2-9.2-2-1.1-.9-1.1-.9.5-1.8.5-1.8,4.1-.2,4.1-.2,4.8,1,4.8,1,14.3,4.8,14.3,4.8,4.5,2.2,4.5,2.2,3.6,2,3.6,2,4.8,3.3,4.8,3.3,6,6,6,6,2.7,4.2,2.7,4.2,1.9,3.7,1.9,3.7,1.8,6.1,1.8,6.1.7,4.5.7,4.5-.4,5.4-.4,5.4-1.4,5.1-1.4,5.1-.7,1.4-.7,1.4-3.3,5.1-3.3,5.1-2.7,2.9-2.7,2.9-5.5,3.3-5.5,3.3-4.5,1.4-4.5,1.4-5.1.9-5.1.9h-2.8ZM367,359.9l3.9-.3,4.8-1.1,4.8-1.1,3.1-1.2,3.1-1.2,4.4-2.7,4.4-2.7,3.1-3.2,3.1-3.2,2.7-4.1,2.7-4.1,1.5-2.9,1.5-2.9,1.2-4.6,1.2-4.6v-7.2s0-7.2,0-7.2l-1.9-7.1-1.9-7.1-3-5.9-3-5.9-4.1-5.3-4.1-5.3-4.3-3.7-4.3-3.7-5.7-3.8-5.7-3.8-6-3-6-3-11.3-3.9-11.3-3.9-5.1-1.4-5.1-1.4-4.3-.7-4.3-.7-2.3.4-2.3.4-.3.3-.3.3.9.9.9.9,10.3,2.4,10.3,2.4,12.1,4.4,12.1,4.4,6.7,3.7,6.7,3.7,4.6,3.1,4.6,3.1,5.1,5.1,5.1,5.1,3.4,5.1,3.4,5.1,1.5,3,1.5,3,1.2,3.9,1.2,3.9.7,6.8.7,6.8-1,5.6-1,5.6-1.6,3.9-1.6,3.9-2.8,4.2-2.8,4.2-2.6,2.2-2.6,2.2-4.6,3-4.6,3-3.7,1.1-3.7,1.1-4.9.7-4.9.7-5.7-.3-5.7-.3-5.1-1.6-5.1-1.6-5.5-2.9-5.5-2.9-4.4-2.9-4.4-2.9-9-9-9-9-4.2-6-4.2-6-3.6-6.1-3.6-6.1-4.3-8.8-4.3-8.8-1.7-3.8-1.7-3.8-1.9-2.8-1.9-2.8-2.5-4.2-2.5-4.2-.9-.8-.9-.8-1.5.4-1.5.4v.7s0,.7,0,.7l3.9,5.7,3.9,5.7,7.7,15.4,7.7,15.4,4.3,7,4.3,7,3.3,4.2,3.3,4.2,4.1,4.8,4.1,4.8,4.9,4.4,4.9,4.4,3,2.2,3,2.2,5.1,2.9,5.1,2.9,3.3,1.6,3.3,1.6,5.4,1.6,5.4,1.6,3.9.5,3.9.5,3.9-.3ZM149.2,360.7l-8.1.2-4.3-1.2-4.3-1.2-3.1-1.6-3.1-1.6-3.4-2.1-3.4-2.1-2.9-2.8-2.9-2.8-1.8-2.6-1.8-2.6-2-4.1-2-4.1-1.3-5-1.3-5-.3-6.4-.3-6.4.7-4.9.7-4.9,1.4-5.5,1.4-5.5,3.1-6.1,3.1-6.1,2.3-3,2.3-3,6.2-6.3,6.2-6.3,4.6-3,4.6-3,5.6-2.7,5.6-2.7,8.1-3,8.1-3,5.7-1.6,5.7-1.6,5.1-1.4,5.1-1.4h3.6s3.6,0,3.6,0l-4.7.8-4.7.8-5.5,1.7-5.5,1.7-4.8,1.3-4.8,1.3-9,3.5-9,3.5-5.8,3.2-5.8,3.2-3.2,2.5-3.2,2.5-5,5.2-5,5.2-2.6,3.3-2.6,3.3-3.2,6.7-3.2,6.7-1.6,6.7-1.6,6.7v8.7s0,8.7,0,8.7l1.3,4.6,1.3,4.6,1.8,3.9,1.8,3.9,2.7,3.8,2.7,3.8,2.5,2,2.5,2,4.6,2.8,4.6,2.8,4.3,1.5,4.3,1.5h8.4s8.4,0,8.4,0l4.8-1.4,4.8-1.4,6.9-3.3,6.9-3.3,3-1.9,3-1.9,5-3.8,5-3.8,4.2-4.2,4.2-4.2,5.6-7,5.6-7,4.1-6.5,4.1-6.5,2.2-4.2,2.2-4.2,1.8-3,1.8-3,2.2-3.9,2.2-3.9,2-3.3,2-3.3,1.5-2.4,1.5-2.4,4.3-6.6,4.3-6.6,3.1-3.9,3.1-3.9,3.1-5,3.1-5,2.5-2.8,2.5-2.8,2.4-3.4,2.4-3.4,3.6-4.8,3.6-4.8,5.6-7.8,5.6-7.8,4.4-5.5,4.4-5.5,7.5-7.7,7.5-7.7,5.8-4.4,5.8-4.4,5.1-3.4,5.1-3.4,6.6-3.2,6.6-3.2,5.4-1.8,5.4-1.8,7.4-1.3,7.4-1.3,10.1.4,10.1.4,5.3.7,5.3.7,1.2.5,1.2.5h-1.3s-1.3,0-1.3,0l-10-1-10-1-8.1.3-8.1.3-6.3,1.5-6.3,1.5-3.3,1.2-3.3,1.2-4.2,1.9-4.2,1.9-4.7,2.7-4.7,2.7-6.2,4.5-6.2,4.5-5.6,5-5.6,5-6.2,7-6.2,7-3.6,4.8-3.6,4.8-4.1,6-4.1,6-1.7,1.8-1.7,1.8-3.2,4.8-3.2,4.8-1.8,2.3-1.8,2.3-2.2,2.5-2.2,2.5-.6,1.5-.6,1.5-5,6.6-5,6.6-1.1,1.5-1.1,1.5-5.5,8.5-5.5,8.5-4,6.5-4,6.5-.4,1.2-.4,1.2-1.6,2.4-1.6,2.4-1.6,3.3-1.6,3.3-3.9,6.6-3.9,6.6-3.3,4.2-3.3,4.2-2.1,2.7-2.1,2.7-4.1,4.4-4.1,4.4-5.3,4.2-5.3,4.2-4.9,3-4.9,3-4.8,2.3-4.8,2.3-5.3,1.6-5.3,1.6-8.1.2ZM148.7,355.5h-2.7c0,0-3.8-.6-3.8-.6l-3.8-.5-2.2-.7-2.2-.7-4.7-2.4-4.7-2.4-3.5-3.2-3.5-3.2-2.2-3.4-2.2-3.4-1.7-4.3-1.7-4.3-.7-5.8-.7-5.8.7-7.6.7-7.6,1.3-4.1,1.3-4.1,2.4-5.1,2.4-5.1,1.3-1.6,1.3-1.6,1.6-2.4,1.6-2.4,5.5-5.6,5.5-5.6,4.5-3,4.5-3,6.6-3.2,6.6-3.2,6.6-2.1,6.6-2.1,7.2-1.9,7.2-1.9,6.2-1.8,6.2-1.8.3.3.3.3-1.4.9-1.4.9-9.5,2.4-9.5,2.4-6,1.8-6,1.8-4.2,1.5-4.2,1.5-4.2,2.1-4.2,2.1-5.1,3.1-5.1,3.1-6,6-6,6-3.4,5.1-3.4,5.1-2.1,4.8-2.1,4.8-1,3.8-1,3.8-.5,6.2-.5,6.2.5,5.1.5,5.1.7,2.4.7,2.4,2.1,4.5,2.1,4.5,4.2,4.2,4.2,4.2,4.8,2.5,4.8,2.5,3.2.8,3.2.8,4.2.4,4.2.4,4.9-.7,4.9-.7,4.6-1.8,4.6-1.8,3.3-1.5,3.3-1.5,6.6-4.4,6.6-4.4,5.5-5.2,5.5-5.2,3.4-4.1,3.4-4.1,3.2-4.3,3.2-4.3,3.9-6.5,3.9-6.5,1.3-2.7,1.3-2.7,3-4.8,3-4.8,5.1-8.7,5.1-8.7,1.6-2.1,1.6-2.1,1.7-3.1,1.7-3.1,6.1-8.2,6.1-8.2,4.1-5,4.1-5,1.6-2.4,1.6-2.4.6-.4.6-.4,2-3.3,2-3.3,3.4-4.2,3.4-4.2,3.7-5.6,3.7-5.6,5.5-6.9,5.5-6.9,7.5-7.3,7.5-7.3,4.7-3.6,4.7-3.6,6.1-4,6.1-4,6.7-2.9,6.7-2.9,5.8-1.8,5.8-1.8,4.6-.9,4.6-.9,5.4-.2,5.4-.2,9.4.5,9.4.5,4.1,1.2,4.1,1.2.4.6.4.6h-.5s-.5,0-.5,0l-3.8-1.2-3.8-1.2-11.2-.6-11.2-.6-6.2.7-6.2.7-6.8,2-6.8,2-6.5,2.8-6.5,2.8-4.2,2.5-4.2,2.5-5.5,3.8-5.5,3.8-4.9,4.3-4.9,4.3-6.3,6.5-6.3,6.5-4.3,5.6-4.3,5.6-3.9,5.8-3.9,5.8-2.9,3.7-2.9,3.7-2.3,3.5-2.3,3.5-1.2,1.9-1.2,1.9-3.1,3.6-3.1,3.6-7.5,10-7.5,10-2.2,3.7-2.2,3.7-1,1.2-1,1.2-3.7,6.3-3.7,6.3-3,5.1-3,5.1-2.5,4.5-2.5,4.5-2.9,5.1-2.9,5.1-3.2,4.8-3.2,4.8-5.3,6.4-5.3,6.4-4.9,4.5-4.9,4.5-6.7,4.5-6.7,4.5-5.2,2.2-5.2,2.2-2.9,1-2.9,1-4,.6-4,.6h-2.7ZM256.6,337.7h-1.7l-2-1.8-2-1.8-1.2-2.5-1.2-2.5-1-2.9-1-2.9-.8-6-.8-6-.6-13.2-.6-13.2.7-1.7.7-1.7.9-1,.9-1h2.2l.6,1.5.6,1.5.6,13.3.6,13.3.9,5.9.9,5.9.7,2.5.7,2.5.9,2.3.9,2.3,1.1-2.2,1.1-2.2.9-4.6.9-4.6.9-5.7.9-5.7.5-13.4.5-13.4.4-1.3.4-1.3h2.9l1.5,3.4,1.5,3.4-.4,11.7-.4,11.7-.9,6.1-.9,6.1-.9,3.7-.9,3.7-1,2.7-1,2.7-.9,1.5-.9,1.5-1.8,1.9-1.8,1.9h-1.7ZM256.4,336.5h.6l.9-.7.9-.7,1.5-2.1,1.5-2.1,1.2-3.3,1.2-3.3.9-3.6.9-3.6.9-6.9.9-6.9.4-9.9.4-9.9-1.6-3.5-1.6-3.5-.6,1-.6,1-.3,10.9-.3,10.9-.9,6.9-.9,6.9-1.2,6.1-1.2,6.1-1.2,2.4-1.2,2.4h-1.7l-.9-1.7-.9-1.7-1.2-4.3-1.2-4.3-.9-8.1-.9-8.1-.4-9-.4-9-.3-2-.3-2-.7.2-.7.2-1,2.1-1,2.1.8,14,.8,14,.7,4.2.7,4.2,1.5,4.7,1.5,4.7,2.5,2.6,2.5,2.6h.6ZM160.6,322.3l-3.3.2-3.4-.4-3.4-.4-2.7-1.3-2.7-1.3-2.3-2-2.3-2-2-3.2-2-3.2-.6-3.6-.6-3.6.7-4.4.7-4.4,2.2-4.5,2.2-4.5,3.3-3.3,3.3-3.3,4.2-2.2,4.2-2.2,5.7-2.1,5.7-2.1,6.2-2.4,6.2-2.4,5.8-2.7,5.8-2.7,5.1-2.4,5.1-2.4,10.7-5.7,10.7-5.7,3-1.5,3-1.5,2.7-.4,2.7-.4,1,1.5,1,1.5-.3.9-.3.9-2.5,1.8-2.5,1.8-16.4,8.4-16.4,8.4-9.2,4.1-9.2,4.1-5.7,2-5.7,2-5.1,2.1-5.1,2.1-3.5,1.8-3.5,1.8-2.6,2.9-2.6,2.9-1.6,4.2-1.6,4.2v5.7l1,2.9,1,2.9,2.7,2.7,2.7,2.7,3.2.7,3.2.7h2.5s2.5,0,2.5,0l3-.8,3-.8,2.9-1.3,2.9-1.3,5.2-3.4,5.2-3.4,6.5-6.3,6.5-6.3,5.7-7.1,5.7-7.1,3.3-4.3,3.3-4.3,2.7-3.5,2.7-3.5,2.9-3.4,2.9-3.4,2-1.2,2-1.2h3.1l.3.5.3.5-2.1,4.1-2.1,4.1-7.5,9.2-7.5,9.2-3.7,4.8-3.7,4.8-4,4.8-4,4.8-3.8,3.6-3.8,3.6-3.6,2.7-3.6,2.7-3.9,2.5-3.9,2.5-2.9,1.2-2.9,1.2-3.4.8-3.4.8-3.3.2ZM158,320.9h4.3s3.2-.6,3.2-.6l3.2-.7,4.8-2.2,4.8-2.2,4.7-3.2,4.7-3.2,5.6-5.4,5.6-5.4,3.7-4.5,3.7-4.5,3.5-4.6,3.5-4.6,6-7.4,6-7.4,2.2-3,2.2-3,1-2,1-2-.3-.3-.3-.3-2,1.3-2,1.3-2.3,2.6-2.3,2.6-4.8,6.2-4.8,6.2-6.4,8.1-6.4,8.1-6.4,6.5-6.4,6.5-3.3,2.5-3.3,2.5-3.6,2.2-3.6,2.2-4.4,1.8-4.4,1.8-4.3.3-4.3.3-3.4-1-3.4-1-2.5-2.2-2.5-2.2-1.4-3-1.4-3-.4-2.5-.4-2.5.9-3.7.9-3.7,1.4-2.8,1.4-2.8,2.2-2.3,2.2-2.3,2.4-1.5,2.4-1.5,5.7-2.4,5.7-2.4,6.9-2.4,6.9-2.4,10.4-4.8,10.4-4.8,14.9-7.7,14.9-7.7,2.1-1.7,2.1-1.7-.9-.9-.9-.9-2.4.6-2.4.6-16.6,8.6-16.6,8.6h-.7l-8.2,3.8-8.2,3.8-5.1,1.9-5.1,1.9-6,2.2-6,2.2-4.1,2.3-4.1,2.3-2.7,2.8-2.7,2.8-2.1,4.4-2.1,4.4-.4,2.4-.4,2.4v3.8s0,3.8,0,3.8l1.4,3.2,1.4,3.2,2.2,2.5,2.2,2.5,2.1,1.3,2.1,1.3,2.5.8,2.5.8h4.3ZM356.1,322.5l-6.1.2-4.2-1.1-4.2-1.1-6-3-6-3-4.8-3.9-4.8-3.9-4.5-4.7-4.5-4.7-5.7-6.9-5.7-6.9-4.2-5.7-4.2-5.7-4.6-5.7-4.6-5.7-.9-1.9-.9-1.9.4-.9.4-.9h3.4l3.3,3,3.3,3,5.3,6.7,5.3,6.7,6,7.7,6,7.7,6.8,7,6.8,7,3.7,2.7,3.7,2.7,3.9,2,3.9,2,4.1,1.3,4.1,1.3h8.2l3.3-1.2,3.3-1.2,2.4-2.7,2.4-2.7,1-3,1-3-.3-3.7-.3-3.7-1.7-3.1-1.7-3.1-2.5-2.3-2.5-2.3-4.4-2.2-4.4-2.2-10.7-4.3-10.7-4.3-10.3-4.5-10.3-4.5-7.3-3.9-7.3-3.9-8.7-5.1-8.7-5.1-.2-2.1-.2-2.1,1.5-.7,1.5-.7,3.2,1,3.2,1,9.4,5.6,9.4,5.6,7.7,3.7,7.7,3.7,13.4,5.7,13.4,5.7,5.3,2.1,5.3,2.1,3.4,2,3.4,2,3.5,3.7,3.5,3.7,1.8,3.9,1.8,3.9v13.1l-1.6,3-1.6,3-2.5,2.8-2.5,2.8-3.9,1.9-3.9,1.9-6.1.2ZM356,321.3l4.8-.2,2.9-1,2.9-1,3.6-3.3,3.6-3.3,1.6-3,1.6-3v-6s0-6,0-6l-2-4.1-2-4.1-3.7-3.7-3.7-3.7-3.6-1.9-3.6-1.9-7.6-3-7.6-3-12.6-5.4-12.6-5.4-6.4-3.2-6.4-3.2-9.2-5.4-9.2-5.4-2-.4-2-.4-.9.4-.9.4.2,1,.2,1,6.9,4.1,6.9,4.1,7.7,4.2,7.7,4.2,11.4,5,11.4,5,11.9,4.8,11.9,4.8,3.9,2.3,3.9,2.3,2.5,2.8,2.5,2.8,1.4,3.1,1.4,3.1v4.5s0,4.5,0,4.5l-1.5,3-1.5,3-2.3,2.2-2.3,2.2-3.2,1.2-3.2,1.2h-8.7l-3.6-.9-3.6-.9-6.3-3.1-6.3-3.1-6.5-6.3-6.5-6.3-4.5-5.1-4.5-5.1-7.8-10-7.8-10-4-4.3-4-4.3-1.5-.8-1.5-.8-.3.3-.3.3.7,1.3.7,1.3,5,6.2,5,6.2,3.4,4.6,3.4,4.6,4.1,5.1,4.1,5.1,5.8,6.5,5.8,6.5,5.9,4.7,5.9,4.7,5.2,2.6,5.2,2.6,3.6.9,3.6.9,1.2.3,1.2.3,4.8-.2ZM146.6,240.5l-3.6.2-7.8-.4-7.8-.4-3.8-.7-3.8-.7-7.2-2.6-7.2-2.6-6.3-2.7-6.3-2.7-4.5-2.5-4.5-2.5-4.2-3.2-4.2-3.2-6.2-5.9-6.2-5.9-3.1-3.9-3.1-3.9-2.4-3.6-2.4-3.6-2.7-5.4-2.7-5.4-2.2-6.2-2.2-6.2-1.5-6.3-1.5-6.3-.3-9-.3-9,.7-6.7.7-6.7,1.5-5.8,1.5-5.8,3.9-7.9,3.9-7.9,1.7-2.5,1.7-2.5,4.3-4.6,4.3-4.6,3.7-2.9,3.7-2.9,4.2-2.5,4.2-2.5,6.7-2.1,6.7-2.1,4.6-.7,4.6-.7h6.6s6.6,0,6.6,0l5.1.7,5.1.7,6.9,1.7,6.9,1.7,4.8,1.8,4.8,1.8,8.1,4.2,8.1,4.2,9.4,6.2,9.4,6.2,6.5,6.4,6.5,6.4,5.8,6.9,5.8,6.9,4.8,6.5,4.8,6.5,4.3,6.9,4.3,6.9,5,9.8,5,9.8,2.2,5.4,2.2,5.4,3.8,11,3.8,11,1.8,6.9,1.8,6.9.4,3.6.4,3.6.8,3.6.8,3.6v2.3s0,2.3,0,2.3l-.9,2.1-.9,2.1h-3.6l-.6-2.2-.6-2.2-1-6.9-1-6.9-1.4-6.3-1.4-6.3-2-6.6-2-6.6-3.6-9.4-3.6-9.4-2.4-5.8-2.4-5.8-2.7-5-2.7-5-4.9-7.8-4.9-7.8-7.1-9.2-7.1-9.2-3.8-4.3-3.8-4.3h-.5c0,.1-.5.3-.5.3l-2.9-2.2-2.9-2.2-8.1-4.2-8.1-4.2-10.1-3.3-10.1-3.3-5.6-.9-5.6-.9h-12.4l-5.9,1.2-5.9,1.2-6.3,2.3-6.3,2.3-3.4,2.2-3.4,2.2-5.1,5.1-5.1,5.1-3.4,6.1-3.4,6.1-1.2,3.2-1.2,3.2-.8,4.4-.8,4.4-.4,5.8-.4,5.8.8,5.4.8,5.4,2.5,7.2,2.5,7.2,1.2,2.8,1.2,2.8,3,4.5,3,4.5,7.3,7.6,7.3,7.6,4.8,3.6,4.8,3.6,6.6,3.1,6.6,3.1,6.6,2.1,6.6,2.1,7.8,1.6,7.8,1.6.4.2.4.2,7.4.9,7.4.9,2.9.9,2.9.9h12.8l9.2,1.3,9.2,1.3h1.5s1.5,0,1.5,0l5.1-.4,5.1-.4-1.5.6-1.5.6-4.9.6-4.9.6-4.7-1-4.7-1-12-.5-12-.5-1.8-.7-1.8-.7-7.8-1.2-7.8-1.2-5.7-1.2-5.7-1.2-5-1.2-5-1.2-5.7-2.1-5.7-2.1-5.4-2.7-5.4-2.7-5.2-3.8-5.2-3.8-5-5.3-5-5.3-4-5-4-5-2.4-4.9-2.4-4.9-2.3-7-2.3-7-.7-4.8-.7-4.8.4-7,.4-7,.9-4.2.9-4.2,1.2-3.1,1.2-3.1,3.4-6.1,3.4-6.1,4.8-5,4.8-5,3.7-2.6,3.7-2.6,5.6-2.1,5.6-2.1,5.1-1.3,5.1-1.3h21.5l4.5,1.1,4.5,1.1,6.6,2.1,6.6,2.1,4.5,1.8,4.5,1.8,6.3,3.6,6.3,3.6,3,2.4,3,2.4-2.4-2.9-2.4-2.9-4.2-3.5-4.2-3.5-7.8-5-7.8-5-2.7-1.7-2.7-1.7-3.6-1.7-3.6-1.7-5.4-2.4-5.4-2.4-4.9-1.2-4.9-1.2-4.9-.8-4.9-.8-5.1-.4-5.1-.4-6.2.9-6.2.9-5.1,1.5-5.1,1.5-3.6,1.8-3.6,1.8-3.6,2.4-3.6,2.4-4.7,4.5-4.7,4.5-2.3,3-2.3,3-2.8,5.5-2.8,5.5-1.7,5.2-1.7,5.2-.7,4.3-.7,4.3-.4,7.9-.4,7.9,1,6.7,1,6.7,1.5,5.2,1.5,5.2,2.8,6.6,2.8,6.6,4,6,4,6,4.8,5.8,4.8,5.8,4,3.4,4,3.4,4.8,3.2,4.8,3.2,5.7,2.9,5.7,2.9,9.2,3,9.2,3,6,1,6,1,11.9-.4,11.9-.4,2.8,1.8,2.8,1.8v1.1l-2.5,1-2.5,1-3.6.9-3.6.9-3.6.2ZM143,239l9-.2,4.4-1.4,4.4-1.4-1.7-.7-1.7-.7-.4-.6-.4-.6-13.3.3-13.3.3-6-1.2-6-1.2-7.9-2.7-7.9-2.7-5.5-2.8-5.5-2.8-4.1-2.7-4.1-2.7-3.9-3.2-3.9-3.2-3.3-3.5-3.3-3.5-3.3-4.2-3.3-4.2-3.5-5.4-3.5-5.4-2.2-5.3-2.2-5.3-2-6-2-6-1-6.6-1-6.6.4-10.1.4-10.1.9-4.2.9-4.2,1.3-3.9,1.3-3.9,3-6,3-6,3.3-4.4,3.3-4.4,4-3.4,4-3.4,3.5-2.4,3.5-2.4,3-1.5,3-1.5,4.8-1.6,4.8-1.6,5-.9,5-.9h12.9l6.4,1,6.4,1,5.7,1.7,5.7,1.7,7.9,3.6,7.9,3.6,5.5,3.4,5.5,3.4,5.4,3.6,5.4,3.6,3.9,3.4,3.9,3.4,4.5,4.8,4.5,4.8,3.3,3.9,3.3,3.9,5.8,7.6,5.8,7.6,4.8,7.4,4.8,7.4,3.3,6.2,3.3,6.2,2.5,6,2.5,6,3,7.8,3,7.8,1.8,5.1,1.8,5.1,1.8,7.1,1.8,7.1,1.5,9.3,1.5,9.3.3,1,.3,1h1.1l1-2,1-2-1-5-1-5-.6-4.5-.6-4.5-1.6-6-1.6-6-3.3-9.5-3.3-9.5-2.4-6.3-2.4-6.3-4-8.4-4-8.4-4.7-7.7-4.7-7.7-5.7-7.8-5.7-7.8-6.8-7.9-6.8-7.9-5.6-5.3-5.6-5.3-7-4.7-7-4.7-5.9-3.5-5.9-3.5-5.5-2.5-5.5-2.5-4.1-1.5-4.1-1.5-7.4-1.8-7.4-1.8-6.8-.7-6.8-.7-6.9.7-6.9.7-7.5,2.4-7.5,2.4-4.2,2.4-4.2,2.4-3.6,2.8-3.6,2.8-3,3.2-3,3.2-2.9,3.9-2.9,3.9-3.4,6.9-3.4,6.9-1.2,4.2-1.2,4.2-1.1,5.4-1.1,5.4v11.3s0,11.3,0,11.3l1.3,6,1.3,6,2.4,7.1,2.4,7.1,2.1,4.5,2.1,4.5,4.4,6.6,4.4,6.6,4.3,4.6,4.3,4.6,5.1,4.3,5.1,4.3,3.9,2.7,3.9,2.7,4.8,2.4,4.8,2.4,8,3.2,8,3.2,4.2,1.3,4.2,1.3,6.3.9,6.3.9,9-.2ZM374.3,242l-11,.3-4.8-1.2-4.8-1.2-3.7-1.2-3.7-1.2-1.1-1.2-1.1-1.2.3-.3.3-.3,3,1.5,3,1.5,5.4,1.4,5.4,1.4,4,.4,4,.4,9-.7,9-.7,6-.9,6-.9,4.9-1.5,4.9-1.5,7.3-3.3,7.3-3.3,4.2-2.5,4.2-2.5,4.2-3.1,4.2-3.1,6.1-6.2,6.1-6.2,5.3-8,5.3-8,2.6-5.2,2.6-5.2,2.1-6.2,2.1-6.2,1.5-7.3,1.5-7.3v-17.3l-1.2-7.4-1.2-7.4-1.5-4.2-1.5-4.2-2.4-4.8-2.4-4.8-2.8-4.2-2.8-4.2-3.3-4-3.3-4-3.6-3-3.6-3-4.1-2.4-4.1-2.4-6.2-2.1-6.2-2.1-7-1.2-7-1.2h-15.9l-4.7.6-4.7.6-7,2.1-7,2.1-5.8,2.5-5.8,2.5-5.4,2.9-5.4,2.9-6.6,4.5-6.6,4.5-4.2,3.4-4.2,3.4-2.8,2.6-2.8,2.6-5.3,6-5.3,6-6.3,8-6.3,8-5.5,9-5.5,9-4.7,9.5-4.7,9.5-3.9,9.9-3.9,9.9-2.1,6.5-2.1,6.5-2.1,6.9-2.1,6.9v4.6l1-.8,1-.8,1.9-4.2,1.9-4.2,2.5-8.1,2.5-8.1,2.7-7.5,2.7-7.5,3.3-7.5,3.3-7.5,3-6,3-6,4.6-7.5,4.6-7.5,4.3-5.9,4.3-5.9,4.3-5.1,4.3-5.1,4.7-5.2,4.7-5.2,4.9-4.2,4.9-4.2,8-5.4,8-5.4,8.2-4.1,8.2-4.1,6.7-2,6.7-2,7.4-1.3,7.4-1.3h6.9s6.9,0,6.9,0l5.4.9,5.4.9,5.4,1.8,5.4,1.8,3.7,1.9,3.7,1.9,3.3,2.4,3.3,2.4,3.6,3.6,3.6,3.6,3.3,4.8,3.3,4.8,2.5,4.5,2.5,4.5,1.2,3.5,1.2,3.5,1.5,7.2,1.5,7.2v8s0,8,0,8l-1.2,7.4-1.2,7.4-1.9,5.7-1.9,5.7-3.5,6.9-3.5,6.9-3.9,6-3.9,6-7.5,7.5-7.5,7.5-6.3,4.1-6.3,4.1-5.1,2.3-5.1,2.3-5.1,1.7-5.1,1.7-5.1.9-5.1.9-11,1-11,1-11.3-1.1-11.3-1.1-1.3-.5-1.3-.5v-1.4l1.9.4,1.9.4,7.8.9,7.8.9h6.3s6.3,0,6.3,0l9-1,9-1,4.4-.9,4.4-.9,5.1-1.8,5.1-1.8,4-1.9,4-1.9,2.7-1.7,2.7-1.7,4.2-2.7,4.2-2.7,6.9-6.9,6.9-6.9,3.6-5.4,3.6-5.4,3.8-7.5,3.8-7.5,1.9-5.7,1.9-5.7,1-5.4,1-5.4.3-8.4.3-8.4-.9-5.7-.9-5.7-1.5-5.2-1.5-5.2-2.5-4.9-2.5-4.9-3-4.5-3-4.5-3.3-3.8-3.3-3.8-3.6-2.7-3.6-2.7-5.4-2.6-5.4-2.6-5.1-1.5-5.1-1.5-4.2-.7-4.2-.7h-7.2s-7.2,0-7.2,0l-5.4.9-5.4.9-4.9,1.3-4.9,1.3-4.3,1.6-4.3,1.6-6.3,3.1-6.3,3.1-8.7,5.8-8.7,5.8-5.2,4.4-5.2,4.4-5.3,6.1-5.3,6.1-.5.9-.5.9,2.6-2.9,2.6-2.9.3.3.3.3-2.6,2.6-2.6,2.6-.4-.3-.4-.3-3.3,3.7-3.3,3.7-4.5,6.6-4.5,6.6-3.1,5.1-3.1,5.1-2.9,5.4-2.9,5.4-4.5,10.1-4.5,10.1-3,8.7-3,8.7-1.6,5.4-1.6,5.4-2,4.7-2,4.7-1.5,1.8-1.5,1.8h-.8c0,.1-.8.2-.8.2v-7.7l3.6-11.8,3.6-11.8,2.6-7,2.6-7,2.8-6.5,2.8-6.5,4.5-9,4.5-9,5-8.1,5-8.1,7.9-9.8,7.9-9.8,6-6.4,6-6.4,5.2-4.1,5.2-4.1,5.7-3.9,5.7-3.9,5.4-3,5.4-3,6.4-2.7,6.4-2.7,6.1-1.9,6.1-1.9,6.3-.9,6.3-.9h7.5s7.5,0,7.5,0l6.8,1.2,6.8,1.2,6.4,2,6.4,2,4.8,2.8,4.8,2.8,4.5,4.2,4.5,4.2,4.4,5.8,4.4,5.8,2.1,3.8,2.1,3.8,2.1,5.1,2.1,5.1,1.2,6,1.2,6,.7,6.5.7,6.5-.6,7.6-.6,7.6-1.5,6.3-1.5,6.3-2.3,6.2-2.3,6.2-3.3,5.9-3.3,5.9-3.9,5.7-3.9,5.7-6.5,6.9-6.5,6.9-6.7,4.5-6.7,4.5-2.7,1.4-2.7,1.4-6.4,2.8-6.4,2.8-4.9,1.5-4.9,1.5-7.5,1.2-7.5,1.2-11,.3ZM312.7,233.4l-2.1.3-3.6-.4-3.6-.4-3-.5-3-.5-.7-.9-.7-.9v-1l1.6.9,1.6.9,3.6.7,3.6.7h6.8l2.9-1.5,2.9-1.5,3.8-.6,3.8-.6h4.8s4.8,0,4.8,0l5.1-.9,5.1-.9,9-.9,9-.9,8-1.5,8-1.5,7.5-2.7,7.5-2.7,5.4-2.7,5.4-2.7,2.7-1.8,2.7-1.8,5.9-4.8,5.9-4.8,3.2-2.9,3.2-2.9,3-4.5,3-4.5,3.2-7,3.2-7,1.5-5.3,1.5-5.3.7-5.8.7-5.8-.7-5.8-.7-5.8-1.2-4.8-1.2-4.8-1.6-3.2-1.6-3.2-3.5-5.2-3.5-5.2-3.8-3.5-3.8-3.5-3.6-2.4-3.6-2.4-5.4-2.3-5.4-2.3-4.2-1.1-4.2-1.1-7.3-.8-7.3-.8-6.4.7-6.4.7-6.9,1.7-6.9,1.7-7.8,3.8-7.8,3.8-6.9,5.2-6.9,5.2-3.2,2.7-3.2,2.7-.3-.3-.3-.3.9-1.3.9-1.3,9.1-6.8,9.1-6.8,5.7-3,5.7-3,5.3-1.8,5.3-1.8,6.1-1.3,6.1-1.3h9.2s9.2,0,9.2,0l5.6,1,5.6,1,5.4,2.1,5.4,2.1,4.8,2.9,4.8,2.9,4.8,5,4.8,5,1.8,2.7,1.8,2.7,2.4,4.5,2.4,4.5,1,3.4,1,3.4.9,5.8.9,5.8v4.2s0,4.2,0,4.2l-.9,5.3-.9,5.3-1.8,5.3-1.8,5.3-3.2,6.7-3.2,6.7-3.2,4.3-3.2,4.3-8.1,6.7-8.1,6.7-3.1,2.2-3.1,2.2-5.8,2.7-5.8,2.7-6.4,2.3-6.4,2.3-5.1,1.2-5.1,1.2-6,.9-6,.9-7.8.9-7.8.9-7.5.6-7.5.6-5,.6-5,.6-2.8,1.4-2.8,1.4-2.1.3ZM240.4,228.8l-.3.3-2.7-3.8-2.7-3.8-4.3-6.3-4.3-6.3-3.3-4.5-3.3-4.5-7-8.1-7-8.1-3.5-3.3-3.5-3.3-4.2-3.3-4.2-3.3-4.2-2.9-4.2-2.9-5.1-3.1-5.1-3.1-5-2.5-5-2.5-5.3-1.8-5.3-1.8-7-1.2-7-1.2h-12.7l-7.5.9-7.5.9-4.5,1.2-4.5,1.2h-.6s-.6,0-.6,0l1.6-.9,1.6-.9,5-1.2,5-1.2,5.8-.6,5.8-.6h12.7l6.2.9,6.2.9,5.2,1.5,5.2,1.5,6.6,3.2,6.6,3.2,5.7,3.5,5.7,3.5,6.8,5,6.8,5,5.4,5.2,5.4,5.2,5.1,5.9,5.1,5.9,4.4,5.8,4.4,5.8,4.3,6.2,4.3,6.2,2.3,3.8,2.3,3.8-.3.3ZM212.1,228.1l-.4.3-2.4-.8-2.4-.8-8.1-.6-8.1-.6-10.4-.6-10.4-.6-12.8-2.1-12.8-2.1-7.5-1.7-7.5-1.7-4.7-1.9-4.7-1.9-2.5-1.2-2.5-1.2-5.5-3.3-5.5-3.3-5.7-6.5-5.7-6.5h-1.1l-3.5-4.3-3.5-4.3-2.5-4.8-2.5-4.8-2.4-7-2.4-7-.7-5.2-.7-5.2.4-6,.4-6,1.2-4.5,1.2-4.5,1.3-3.3,1.3-3.3,2.6-3.9,2.6-3.9,5-4.8,5-4.8,4.1-2.4,4.1-2.4,3.6-1.5,3.6-1.5,4.2-1.1,4.2-1.1h10.1s10.1,0,10.1,0l6.6,1.7,6.6,1.7,5.1,2.1,5.1,2.1,8.4,3.9,8.4,3.9,2.5,1.8,2.5,1.8v.8l-10.1-4.9-10.1-4.9-6.5-2.6-6.5-2.6-6.6-1.7-6.6-1.7h-9.2s-9.2,0-9.2,0l-4.9,1.3-4.9,1.3-4,1.8-4,1.8-4,2.6-4,2.6-4.4,4.7-4.4,4.7-2,3.5-2,3.5-2,6-2,6-.6,5.9-.6,5.9.6,5.5.6,5.5,1.9,5.9,1.9,5.9,2,4.3,2,4.3,2.2,3.5,2.2,3.5,6.3,6.7,6.3,6.7,2.7,2.9,2.7,2.9,6,3.4,6,3.4,5.7,2.4,5.7,2.4,2.4.7,2.4.7,5.7,1.3,5.7,1.3,12.2,2.1,12.2,2.1,11.3.6,11.3.6,7.5.6,7.5.6,2.5.7,2.5.7v.9l-.4.3ZM299.8,227.9h-3.8l.3-.6.3-.6,3.4-.4,3.4-.4,4.2-1.1,4.2-1.1,9.6-1.2,9.6-1.2h6.8l7.6-.9,7.6-.9,6.9-.7,6.9-.7,6.2-1.2,6.2-1.2,7.4-2.6,7.4-2.6,6.1-3.4,6.1-3.4,4.8-3.7,4.8-3.7,1.3-1.3,1.3-1.3h1.1l5.1-5.7,5.1-5.7,3.9-7.9,3.9-7.9,1.6-6,1.6-6v-8.4s0-8.4,0-8.4l-1.3-4.8-1.3-4.8-2.8-5.5-2.8-5.5-3-4-3-4-4.2-3.5-4.2-3.5-5.4-2.6-5.4-2.6-4.5-1.2-4.5-1.2-5.9-.7-5.9-.7-4.5.4-4.5.4-5.8,1.2-5.8,1.2-4.7,1.8-4.7,1.8-4.7,2.4-4.7,2.4-7.5,5-7.5,5-5.3,4.3-5.3,4.3-1.1.6-1.1.6v-1.1l3.4-3,3.4-3,3.8-2.9,3.8-2.9,7-4.5,7-4.5,3.9-2,3.9-2,5.7-2.1,5.7-2.1,4.9-.9,4.9-.9,5.5-.4,5.5-.4,5.4.7,5.4.7,4.6,1.2,4.6,1.2,5.5,2.7,5.5,2.7,4.2,3.5,4.2,3.5,3.1,3.9,3.1,3.9,3,5.8,3,5.8,1.2,4.7,1.2,4.7.3,6,.3,6-.7,5.3-.7,5.3-1.8,5.5-1.8,5.5-3.2,6.4-3.2,6.4-4.4,5.1-4.4,5.1-6.8,5.4-6.8,5.4-3.8,2.3-3.8,2.3-3.9,2-3.9,2-6.8,2.3-6.8,2.3-6.6,1.2-6.6,1.2-11.6,1.2-11.6,1.2-8.1.5-8.1.5-8.1,1.2-8.1,1.2-3.5,1.2-3.5,1.2h-3.8ZM221.3,226.7h-1.3s-1.2-.7-1.2-.7l-1.2-.7-4.5-4.6-4.5-4.6-3-2-3-2-7.1-4.7-7.1-4.7-6.1-2.9-6.1-2.9-7.9-2.7-7.9-2.7-6.9-1-6.9-1-10.4.3-10.4.3-5.4,1.2-5.4,1.2-6.2,2.1-6.2,2.1-.8-.3-.8-.3-.7-1.5-.7-1.5v-1.7l1.3-.9,1.3-.9,5.7-1.9,5.7-1.9,5.4-1.2,5.4-1.2,10.8-.3,10.8-.3,5.9.7,5.9.7,9,2.3,9,2.3,7.5,3.2,7.5,3.2,10.7,7.1,10.7,7.1,5.8,5.7,5.8,5.7v3.3l-.6,1.2-.6,1.2h-1.3ZM222,224.6l.8-.8-.4-1.2-.4-1.2-5.9-5.7-5.9-5.7-9.5-6.2-9.5-6.2-2.1-1.2-2.1-1.2-6.6-2.7-6.6-2.7-8.4-2.1-8.4-2.1-5.9-.7-5.9-.7-10.5.3-10.5.3-4.5,1-4.5,1-6.3,2-6.3,2-1.1.8-1.1.8,1,1.5,1,1.5,7.8-2.5,7.8-2.5,6.6-.9,6.6-.9h17.7l6.8,1.2,6.8,1.2,6,2,6,2,6.6,2.8,6.6,2.8,3,2,3,2,4.5,3,4.5,3,3.8,2.6,3.8,2.6,4.2,4.4,4.2,4.4,1.2.5,1.2.5.8-.8ZM293.1,226.1h-1.8l-.7-1.2-.7-1.2.7-2,.7-2,6.1-5.9,6.1-5.9,8-5.3,8-5.3,6.9-3.4,6.9-3.4,5.7-1.8,5.7-1.8,6-1.5,6-1.5,8.7-.6,8.7-.6,7.7.7,7.7.7,5.7,1.1,5.7,1.1,5.5,2.1,5.5,2.1,1,1.2,1,1.2-.4,1.5-.4,1.5h-2.2s-2.2,0-2.2,0l-6.7-2.1-6.7-2.1-5.2-1-5.2-1h-10.7s-10.7,0-10.7,0l-4.5.8-4.5.8-5.3,1.5-5.3,1.5-3.9,1.5-3.9,1.5-5.8,2.9-5.8,2.9-5.9,3.7-5.9,3.7-4.2,3.2-4.2,3.2-3,2.3-3,2.3-1.6,2.5-1.6,2.5h-1.8ZM293,224.9h.6l1.8-2.5,1.8-2.5,3.1-2.5,3.1-2.5,4.5-3.2,4.5-3.2,6.4-4,6.4-4,3.4-1.7,3.4-1.7,5.4-2.1,5.4-2.1,5.3-1.5,5.3-1.5,4.5-.8,4.5-.8h11s11,0,11,0l5.7,1.1,5.7,1.1,6.3,2,6.3,2h3.2v-2.5l-3.9-1.8-3.9-1.8-5.5-1.4-5.5-1.4-4.8-.8-4.8-.8h-11s-11,0-11,0l-5.1,1.1-5.1,1.1-7.2,2.1-7.2,2.1-4.8,2-4.8,2-4.5,2.4-4.5,2.4-7.1,4.8-7.1,4.8-5.8,5.6-5.8,5.6-.4,1.4-.4,1.4.3.9.3.9h.6ZM240.8,224.9h-.2l-.9-1.3-.9-1.3-3-6.4-3-6.4-3.6-5.3-3.6-5.3-5.2-6.2-5.2-6.2-3.9-4.2-3.9-4.2-6.9-6.1-6.9-6.1-5.6-3.9-5.6-3.9-6-3.3-6-3.3-5.1-2.2-5.1-2.2-5.7-1.5-5.7-1.5-6.7-.9-6.7-.9h-6.7s-6.7,0-6.7,0l-3.9.6-3.9.6-7.1,2.1-7.1,2.1-.7-.2-.7-.2,5.3-1.9,5.3-1.9,3.6-.9,3.6-.9,9-.3,9-.3,7.2,1,7.2,1,5.9,1.5,5.9,1.5,4.3,1.8,4.3,1.8,6.6,3.5,6.6,3.5,5.3,3.6,5.3,3.6,5.4,4.6,5.4,4.6,4.1,3.9,4.1,3.9,5.5,6.3,5.5,6.3,4.2,5.5,4.2,5.5,2.7,4.7,2.7,4.7,2,5.5,2,5.5h-.2ZM431.3,210.6h-.7s-3.3-2.9-3.3-2.9l-3.3-2.9.7-1.1.7-1.1,1.5-.8,1.5-.8,1.6.4,1.6.4,1.2,1.2,1.2,1.2-.3,2.3-.3,2.3-.7.9-.7.9h-.7ZM431.5,208.8h.4l.3-1.6.3-1.6-.9-1.3-.9-1.3h-3.3l-.7.7-.7.7v.9l2.5,1.8,2.5,1.8h.4ZM84.3,210h-.6l-.9-1.3-.9-1.3v-3.8l1.5-1,1.5-1,1.7.4,1.7.4,1.4,1.5,1.4,1.5-1.4,1.5-1.4,1.5-1.6.8-1.6.8h-.6ZM84.6,208.2h.9l1.8-1.3,1.8-1.3-1-1.1-1-1.1h-2.7l-.7.8-.7.8.4,1.5.4,1.5h.9ZM256.4,169.9h-3.1c0,0-2.2-.7-2.2-.7l-2.2-.6-2.8-2.5-2.8-2.5-1.4-3-1.4-3v-4.2s0-4.2,0-4.2l1.8-3.7,1.8-3.7,2.7-2.1,2.7-2.1,2.5-.7,2.4-.7,3.8.4,3.8.4,2.6,1.5,2.6,1.5,1.6,2,1.6,2,1.1,2.4,1.1,2.4v4.3s0,4.3,0,4.3l-1.8,3.4-1.8,3.4v.3s0,.3,0,.3h-.4s-.4,0-.4,0l-1.8,1.7-1.8,1.7-2.6.9-2.6.9h-3.1ZM256.1,168.8h1.5s3-.8,3-.8l3-.9,2.5-2.1,2.5-2.1,1.6-3.2,1.6-3.2v-2.6c0,0,.2-2.6.2-2.6l-.8-2.8-.8-2.8-2.1-2.4-2.1-2.4-2.4-1.2-2.4-1.2-3.1-.3-3.1-.3-2.5.7-2.5.7-2.5,1.9-2.5,1.9-1.8,3.4-1.8,3.4v7.1l1.3,3.1,1.3,3.1,2.4,2.1,2.4,2.1,2.7.8,2.7.8h1.5ZM256.5,164h-3.1s-.9-.4-.9-.4l-.9-.3-1.7-1.2-1.7-1.2-1.2-2.4-1.2-2.4.2-3.6.2-3.6,1.2-1.6,1.2-1.6,1.9-1.3,1.9-1.3,2.4-.3,2.4-.3,2.1.4,2.1.4,1.8,1.5,1.8,1.5,1.2,2.3,1.2,2.3v5.8l-1.8,2.7-1.8,2.7-2.1,1-2.1,1h-3.1ZM256.2,162.8h2.3l2-.8,2-.8,1.7-2.2,1.7-2.2.2-2.8.2-2.8-1.4-2.4-1.4-2.4-2.1-1.4-2.1-1.4-3.2.3-3.2.3-1.6,1.2-1.6,1.2-1.4,2-1.4,2,.3,3.2.3,3.2,1.2,1.6,1.2,1.6,2,1.3,2,1.3h2.3ZM268.9,164.6h.3v-.6h-.6v.6h.3ZM253,129l-1.5.4-1-.7-1-.7-2-7.2-2-7.2-3.3-7.7-3.3-7.7-2.5-4.5-2.5-4.5-1.5-2.4-1.5-2.4-4.4-6-4.4-6-4.2-4.2-4.2-4.2-6.9-5.7-6.9-5.7-1-1.6-1-1.6v-1.9h1.9s1.9,0,1.9,0l4.9,2.8,4.9,2.8,5.9,5.3,5.9,5.3,4.5,5.6,4.5,5.6,5,7.5,5,7.5,3.4,7.2,3.4,7.2,2.7,8.1,2.7,8.1.7,3.8.7,3.8-.5.5-.5.5-1.5.4ZM252.9,127.6h1.5l-.4-2.7-.4-2.7-1.8-6-1.8-6-2.1-4.9-2.1-4.9-3-5.9-3-5.9-5.3-7.8-5.3-7.8-3.1-3.8-3.1-3.8-6.3-5.7-6.3-5.7-4.4-2.5-4.4-2.5-1.3-.4-1.3-.4v1.7l3.7,3.5,3.7,3.5,5.4,4.5,5.4,4.5,2.8,2.9,2.8,2.9,5.2,6.8,5.2,6.8,3,5.1,3,5.1,2.9,6.4,2.9,6.4,1.2,3.2,1.2,3.2,1.3,4.8,1.3,4.8.8,1.6.8,1.6h1.5ZM261.7,128.8h-2.5l-.7-.9-.7-.9.4-3.1.4-3.1,2.4-7.1,2.4-7.1,3.3-6.9,3.3-6.9,4.5-7.5,4.5-7.5,3.6-4.5,3.6-4.5,5.7-5.8,5.7-5.8,1.9-1.5,1.9-1.5,2.5-.9,2.5-.9v.9l-3.1,1.4-3.1,1.4-6.3,6.3-6.3,6.3-3.6,4.5-3.6,4.5-4.7,7.6-4.7,7.6-3.5,7.7-3.5,7.7-2.1,6.4-2.1,6.4v3c0,0-.1,3-.1,3l1.9.2,1.9.2.4-1.7.4-1.7,1.5-6,1.5-6,2.5-6.3,2.5-6.3,2.8-5.4,2.8-5.4,3.8-5.7,3.8-5.7,4-5,4-5,4.2-3.3,4.2-3.3,3.5-3.4,3.5-3.4h.5l-.9,1.7-.9,1.7-2.6,2.4-2.6,2.4-3.1,2.4-3.1,2.4-3.6,4.1-3.6,4.1-4.2,5.9-4.2,5.9-3.5,6.4-3.5,6.4-2.2,5.1-2.2,5.1-1.2,3.6-1.2,3.6-1.3,5.8-1.3,5.8h-2.5ZM323.2,50h-1.8l-1.3-.9-1.3-.9-1.2-2.3-1.2-2.3.6-1.5.6-1.5,1.5-1,1.5-1,2,.4,2,.4,1.4,1.5,1.4,1.5v6l-1.2.8-1.2.8h-1.8ZM323.3,48.9h2l.7-1.3.7-1.3-.4-1.9-.4-1.9-1.1-1-1.1-1-1.8-.4-1.8-.4-1,1-1,1v2.4l.7,1.3.7,1.3.9,1,.9,1h2ZM189.6,49.5h-2.1l-1.2-1.6-1.2-1.6v-3.9l1.8-1.5,1.8-1.5h2.8l1.5.7,1.5.7.2,1.2.2,1.2.3,1.7.3,1.7-.2-.2-.2-.2-1.7,1.7-1.7,1.7h-2.1ZM189.5,48.3h1.4l1.6-1.2,1.6-1.2v-3.4l-1.3-.9-1.3-.9h-2l-1.6,1.2-1.6,1.2v2.6l.9,1.3.9,1.3h1.4Z"/>
      </g>
    </g>
  </g>
</svg>